<?xml version="1.0" encoding="iso-8859-1"?>
<!-- Uploaded to: SVG Repo, www.svgrepo.com, Generator: SVG Repo Mixer Tools -->
<svg fill="#000000" height="800px" width="800px" version="1.1" id="Layer_1" xmlns="http://www.w3.org/2000/svg" xmlns:xlink="http://www.w3.org/1999/xlink" 
	 viewBox="0 0 512 512" xml:space="preserve">
<g>
	<g>
		<g>
			<path d="M485.456,44.327h-32.59c-4.484,0-8.118,3.634-8.118,8.118s3.634,8.118,8.118,8.118h32.59
				c5.684,0,10.308,4.623,10.308,10.307v290.286c0,5.684-4.624,10.307-10.308,10.307H26.544c-5.684,0-10.308-4.623-10.308-10.307
				V70.87c0-5.684,4.624-10.307,10.308-10.307h399.261c4.484,0,8.118-3.634,8.118-8.118c0-4.484-3.634-8.118-8.118-8.118H26.544
				C11.908,44.327,0,56.234,0,70.87v290.286c0,14.635,11.908,26.543,26.544,26.543h458.912c14.636,0,26.544-11.908,26.544-26.543
				V70.87C512,56.234,500.094,44.327,485.456,44.327z"/>
			<path d="M175.771,336.083h274.931c4.484,0,8.118-3.634,8.118-8.118V104.06c0-4.484-3.634-8.118-8.118-8.118h-337.71
				c-4.484,0-8.118,3.634-8.118,8.118v223.905c0,4.484,3.634,8.118,8.118,8.118h35.719c4.484,0,8.118-3.634,8.118-8.118
				c0-4.484-3.634-8.118-8.118-8.118h-27.601V112.178h321.474v207.669H175.771c-4.484,0-8.118,3.634-8.118,8.118
				C167.653,332.45,171.286,336.083,175.771,336.083z"/>
			<path d="M484.797,260.148v-88.271c0-4.484-3.634-8.118-8.118-8.118c-4.484,0-8.118,3.634-8.118,8.118v88.271
				c0,4.484,3.634,8.118,8.118,8.118C481.163,268.266,484.797,264.632,484.797,260.148z"/>
			<path d="M93.22,216.012c0-17.876-14.543-32.419-32.417-32.419c-17.876,0-32.419,14.544-32.419,32.419
				c0,17.875,14.544,32.419,32.419,32.419C78.678,248.432,93.22,233.888,93.22,216.012z M60.803,232.196
				c-8.923,0-16.183-7.26-16.183-16.183s7.26-16.183,16.183-16.183c8.922,0,16.181,7.26,16.181,16.183
				S69.725,232.196,60.803,232.196z"/>
			<path d="M44.079,122.423h31.028c4.484,0,8.118-3.634,8.118-8.118c0-4.484-3.634-8.118-8.118-8.118H44.079
				c-4.484,0-8.118,3.634-8.118,8.118C35.961,118.79,39.594,122.423,44.079,122.423z"/>
			<path d="M44.079,157.351h31.028c4.484,0,8.118-3.634,8.118-8.118c0-4.484-3.634-8.118-8.118-8.118H44.079
				c-4.484,0-8.118,3.634-8.118,8.118C35.961,153.718,39.594,157.351,44.079,157.351z"/>
			<path d="M75.107,274.674H44.079c-4.484,0-8.118,3.634-8.118,8.118c0,4.484,3.634,8.118,8.118,8.118h31.028
				c4.484,0,8.118-3.634,8.118-8.118C83.225,278.308,79.59,274.674,75.107,274.674z"/>
			<path d="M75.107,309.602H44.079c-4.484,0-8.118,3.634-8.118,8.118c0,4.484,3.634,8.118,8.118,8.118h31.028
				c4.484,0,8.118-3.634,8.118-8.118C83.225,313.236,79.59,309.602,75.107,309.602z"/>
			<path d="M182.322,137.577l-35.18,35.18c-3.17,3.171-3.17,8.311,0,11.481c1.586,1.585,3.664,2.377,5.741,2.377
				s4.155-0.792,5.741-2.377l35.18-35.18c3.17-3.171,3.17-8.311,0-11.481C190.633,134.409,185.494,134.409,182.322,137.577z"/>
			<path d="M177.998,210.289c1.585,1.585,3.663,2.377,5.74,2.377c2.077,0,4.155-0.792,5.741-2.378l60.086-60.089
				c3.17-3.17,3.17-8.311-0.001-11.48c-3.169-3.169-8.31-3.17-11.48,0.001l-60.086,60.089
				C174.828,201.979,174.828,207.119,177.998,210.289z"/>
			<path d="M161.123,235.28c2.077,0,4.155-0.792,5.741-2.377l5.585-5.585c3.17-3.171,3.17-8.311,0-11.481
				c-3.171-3.169-8.311-3.169-11.481,0l-5.585,5.585c-3.17,3.171-3.17,8.311,0,11.481
				C156.969,234.488,159.046,235.28,161.123,235.28z"/>
			<path d="M380.188,415.152H153.972c-0.079,0-0.156,0.01-0.235,0.012c-0.107,0.003-0.213,0.009-0.319,0.016
				c-0.224,0.015-0.445,0.04-0.664,0.073c-0.084,0.013-0.169,0.023-0.254,0.039c-0.633,0.116-1.24,0.304-1.813,0.558
				c-0.015,0.007-0.031,0.011-0.047,0.017l-40.304,18.142c-2.913,1.311-4.786,4.208-4.786,7.403c0,3.194,1.873,6.092,4.786,7.403
				l40.304,18.142c0.017,0.008,0.036,0.013,0.053,0.021c0.208,0.092,0.421,0.172,0.638,0.247c0.049,0.017,0.096,0.038,0.146,0.053
				c0.237,0.077,0.479,0.141,0.726,0.196c0.029,0.006,0.057,0.016,0.087,0.023c0.255,0.054,0.516,0.094,0.78,0.124
				c0.019,0.002,0.038,0.007,0.056,0.009c0.268,0.028,0.541,0.042,0.816,0.043c0.01,0,0.019,0.001,0.029,0.001h226.216
				c14.481,0,26.263-11.781,26.263-26.26S394.669,415.152,380.188,415.152z M145.854,446.996l-12.409-5.585l12.409-5.585V446.996z
				 M380.188,451.435H162.09v-20.047h218.098c5.529,0,10.027,4.496,10.027,10.024S385.718,451.435,380.188,451.435z"/>
		</g>
	</g>
</g>
</svg>